<svg xmlns="http://www.w3.org/2000/svg" width="36" height="38">
    <path fill="#646464" fill-rule="evenodd" d="M35.787 29.551a.996.996 0 0 1-.92.625h-6.464v6.476c0 .409-.242.776-.614.933a.98.98 0 0 1-1.084-.217l-8.764-8.865-8.826 8.928a.986.986 0 0 1-1.083.218 1.012 1.012 0 0 1-.615-.934v-6.593H1.016a.994.994 0 0 1-.92-.624 1.02 1.02 0 0 1 .218-1.102l6.976-7.058a13.19 13.19 0 0 1-2.292-7.446C4.998 6.65 10.805.757 17.941.757c7.137 0 12.943 5.893 12.943 13.135 0 2.779-.865 5.348-2.322 7.471l7.007 7.087c.286.288.372.723.218 1.101zm-32.362-1.45h4.988c.55 0 .995.452.995 1.01v5.171l7.239-7.321c-3.177-.321-6.01-1.821-8.092-4.051l-5.13 5.191zM17.941 2.778c-6.038 0-10.952 4.986-10.952 11.114 0 6.129 4.914 11.115 10.952 11.115s10.952-4.986 10.952-11.115c0-6.128-4.914-11.114-10.952-11.114zm9.36 20.161a12.85 12.85 0 0 1-8.086 4.001l7.197 7.279v-5.054c0-.558.445-1.01.996-1.01h5.049l-5.156-5.216zm-9.36-3.995c-2.745 0-4.978-2.266-4.978-5.052 0-2.785 2.233-5.052 4.978-5.052 2.746 0 4.978 2.267 4.978 5.052 0 2.786-2.232 5.052-4.978 5.052zm0-8.083c-1.647 0-2.986 1.36-2.986 3.031 0 1.672 1.339 3.032 2.986 3.032 1.647 0 2.987-1.36 2.987-3.032 0-1.671-1.34-3.031-2.987-3.031z"/>
</svg>
