<svg 
 xmlns="http://www.w3.org/2000/svg"
 xmlns:xlink="http://www.w3.org/1999/xlink"
 width="32px" height="40px">
<path fill-rule="evenodd"  fill="rgb(102, 102, 102)"
 d="M28.189,30.136 C27.662,31.997 26.629,33.221 25.514,33.372 C24.598,35.076 23.359,36.587 21.898,37.775 C20.019,39.302 18.134,39.998 17.177,39.998 C16.120,39.998 14.066,39.200 12.061,37.442 C10.755,36.296 9.675,34.931 8.842,33.372 C7.967,33.256 7.133,32.473 6.550,31.189 C3.989,29.089 2.308,25.773 1.414,21.059 C1.277,20.328 1.264,19.395 1.415,18.515 C1.245,18.377 1.119,18.186 1.066,17.962 C-0.010,13.365 0.543,9.273 2.666,6.128 C4.748,3.043 8.172,1.035 12.565,0.323 C14.046,0.083 15.616,-0.003 17.223,0.071 L17.747,0.100 C19.093,0.185 20.387,0.441 21.593,0.856 C25.915,2.351 28.780,5.912 28.616,9.474 C29.794,10.758 30.778,13.811 31.199,16.515 C31.707,19.779 31.978,25.842 28.189,30.136 ZM8.137,24.555 C8.477,27.347 9.124,28.998 9.644,30.324 C9.775,30.659 9.896,30.967 9.999,31.263 C10.022,31.322 10.037,31.383 10.045,31.443 C10.173,31.549 10.251,31.701 10.333,31.871 C11.086,33.453 12.115,34.824 13.393,35.945 C15.184,37.514 16.794,38.002 17.177,38.002 C17.515,38.002 18.960,37.581 20.624,36.229 C22.036,35.080 23.212,33.573 24.021,31.873 C24.076,31.759 24.149,31.659 24.238,31.574 C24.240,31.470 24.259,31.365 24.295,31.263 C24.413,30.929 24.547,30.597 24.690,30.247 C25.170,29.072 25.713,27.744 26.046,25.079 C25.646,22.541 24.781,20.374 23.466,18.610 C23.149,19.443 22.695,20.256 21.986,20.986 C20.877,22.129 19.307,22.852 17.322,23.139 C16.858,23.212 16.405,22.943 16.237,22.506 C16.068,22.068 16.230,21.573 16.624,21.317 C19.440,19.478 20.489,16.919 20.643,15.476 C20.314,15.550 19.949,15.637 19.585,15.721 C18.668,15.936 17.748,16.147 17.317,16.207 C16.170,16.366 14.781,16.634 13.169,17.417 C12.743,17.625 12.301,17.868 11.842,18.152 C9.727,19.461 8.509,21.515 8.120,24.427 C8.129,24.478 8.135,24.523 8.137,24.555 ZM20.930,2.744 C19.897,2.386 18.780,2.167 17.611,2.092 L17.136,2.066 C15.659,2.002 14.236,2.077 12.889,2.294 C9.060,2.915 6.102,4.625 4.338,7.240 C2.960,9.281 2.369,11.834 2.589,14.727 C4.182,12.562 7.177,9.909 12.561,9.013 C14.013,8.773 15.575,8.679 17.208,8.724 C18.315,8.758 19.470,8.860 20.641,9.026 C21.167,9.101 21.544,9.569 21.501,10.095 C21.459,10.615 21.021,11.014 20.498,11.014 C20.492,11.014 20.485,11.014 20.478,11.014 C20.275,11.010 20.072,11.008 19.869,11.008 C18.985,11.008 18.111,11.044 17.264,11.117 C15.766,11.250 14.329,11.500 12.992,11.862 C7.736,13.285 4.975,16.142 3.795,17.718 C3.399,18.249 3.202,19.693 3.391,20.691 C3.866,23.190 4.542,25.203 5.462,26.804 C4.939,22.157 6.685,17.927 10.257,15.576 C10.875,15.171 11.570,14.798 12.320,14.467 C13.603,13.907 15.077,13.452 16.960,13.037 C17.845,12.841 18.729,12.674 19.585,12.512 L21.061,12.227 C23.193,11.797 24.792,11.350 25.666,10.567 C25.958,10.306 26.370,10.241 26.721,10.384 C26.604,10.190 26.544,9.967 26.571,9.755 C26.886,7.411 25.017,4.157 20.930,2.744 ZM29.334,17.739 C28.936,14.251 27.879,11.839 27.304,11.023 C27.374,11.257 27.357,11.516 27.243,11.750 C26.561,13.124 25.611,14.099 24.408,14.664 C27.322,17.965 28.344,22.519 28.549,25.663 C29.643,22.791 29.554,19.671 29.334,17.739 ZM16.648,32.377 C16.850,32.431 17.017,32.453 17.177,32.451 C17.343,32.449 17.503,32.421 17.687,32.377 C18.143,32.268 19.905,32.840 20.329,32.994 C20.365,33.006 20.380,33.021 20.384,33.081 C19.832,33.369 18.068,33.357 17.458,33.462 C17.397,33.471 17.286,33.476 17.177,33.476 C17.077,33.475 16.977,33.471 16.921,33.462 C16.059,33.319 14.667,33.553 13.879,33.101 L13.878,33.093 C13.877,33.061 13.898,33.035 13.945,33.030 C14.178,33.008 16.175,32.249 16.648,32.377 ZM17.177,33.843 C17.410,33.846 17.648,33.823 17.828,33.751 C18.530,33.479 19.926,33.520 20.385,33.130 C20.319,33.741 18.820,35.343 17.177,35.324 L17.169,35.324 C15.575,35.302 14.045,33.982 13.890,33.176 C14.407,33.673 15.712,33.468 16.472,33.739 C16.623,33.792 16.896,33.839 17.177,33.843 Z"/>
</svg>