<svg xmlns="http://www.w3.org/2000/svg" width="36" height="36">
    <path fill="#666" fill-rule="evenodd" d="M33.131 16.931c-3.656 3.606-7.052 5.27-10.049 6.737-.74.363-1.47.719-2.19 1.097l.041 5.521a.99.99 0 0 1-.234.648l-3.753 4.439a.99.99 0 0 1-1.692-.326l-2.132-6.401-5.181-5.187-6.393-2.133a.991.991 0 0 1-.315-1.703l4.51-3.712a.978.978 0 0 1 .627-.227h5.396c.231-.475.454-.944.674-1.409 1.665-3.509 3.239-6.821 7.203-10.847C23.292-.286 33.675.704 34.846.829a.988.988 0 0 1 .878.879c.125 1.174 1.112 11.566-2.593 15.223zm.701-14.206c-3.4-.262-10.458-.272-12.78 2.091-3.731 3.787-5.166 6.81-6.827 10.31-.309.649-.622 1.31-.956 1.986a.99.99 0 0 1-.886.551H6.724l-2.855 2.35 4.919 1.641a.979.979 0 0 1 .386.24l5.51 5.517c.109.108.19.242.239.387l1.649 4.952 2.381-2.815-.043-5.751a.99.99 0 0 1 .516-.876c.915-.501 1.843-.954 2.788-1.418 3-1.469 6.103-2.99 9.529-6.37 2.359-2.327 2.347-9.396 2.089-12.795zm-7.92 11.929a4.002 4.002 0 0 1-3.995-4 4 4 0 0 1 3.995-3.998 4.001 4.001 0 0 1 3.995 3.998c0 2.205-1.793 4-3.995 4zm0-6.019a2.02 2.02 0 0 0 0 4.04 2.021 2.021 0 0 0 0-4.04zM6.978 26.252a.983.983 0 0 1 1.206.705.99.99 0 0 1-.704 1.208c-.678.179-2.624.831-3.472 1.681-.526.526-.902 2.352-1.073 3.88 1.781-.079 3.627-.396 4.09-.86.814-.813 1.275-2.958 1.372-3.646.078-.541.576-.899 1.118-.841a.99.99 0 0 1 .84 1.119c-.048.338-.511 3.345-1.932 4.768-1.344 1.347-5.118 1.458-6.337 1.458l-.238-.002a.984.984 0 0 1-.708-.312.994.994 0 0 1-.267-.727c.04-.79.31-4.808 1.737-6.236 1.378-1.38 4.066-2.116 4.368-2.195z"/>
</svg>
