<svg xmlns="http://www.w3.org/2000/svg" width="37" height="36">
    <path fill="#666" fill-rule="evenodd" d="M36.355 16.771L17.277 35.512a1.023 1.023 0 0 1-.717.291h-.001c-.268 0-.527-.106-.716-.291L.977 20.86a.972.972 0 0 1 .014-1.407L20.397 1.069A1.03 1.03 0 0 1 21.1.791h14.538a.999.999 0 0 1 1.01.99v14.293a.978.978 0 0 1-.293.697zM34.627 2.769H21.509L3.132 20.177l13.429 13.236 18.066-17.746V2.769zm-6.522 2.377c1.926 0 3.493 1.533 3.493 3.416 0 1.886-1.567 3.419-3.493 3.419-1.927 0-3.494-1.533-3.494-3.419 0-1.883 1.567-3.416 3.494-3.416zm0 4.857c.811 0 1.472-.647 1.472-1.441s-.661-1.438-1.472-1.438c-.812 0-1.473.644-1.473 1.438 0 .794.661 1.441 1.473 1.441z"/>
</svg>
