<svg xmlns="http://www.w3.org/2000/svg" width="34" height="42">
    <path fill="#646464" fill-rule="evenodd" d="M28.982 41.613H4.989c-2.756 0-4.998-2.264-4.998-5.048V12.334a5.027 5.027 0 0 1 4.248-4.973V5.982c0-.558.448-1.01 1-1.01h6.184c.666-2.484 2.895-4.327 5.563-4.327 2.667 0 4.897 1.843 5.564 4.327h6.183c.552 0 .999.452.999 1.01v1.379a5.027 5.027 0 0 1 4.249 4.973v24.231c0 2.784-2.242 5.048-4.999 5.048zM16.986 2.665c-1.554 0-2.89.952-3.473 2.307h6.946c-.583-1.355-1.919-2.307-3.473-2.307zm10.747 4.327H6.239v3.367h21.494V6.992zm4.249 5.342c0-1.408-.96-2.583-2.25-2.922v1.956c0 .559-.447 1.01-.999 1.01H5.239c-.552 0-1-.451-1-1.01V9.412a3.022 3.022 0 0 0-2.249 2.922v24.231c0 1.67 1.345 3.029 2.999 3.029h23.993c1.655 0 3-1.359 3-3.029V12.334zM28.597 35.77H5.916c-.552 0-1-.451-1-1.01 0-.558.448-1.01 1-1.01h22.681c.552 0 1 .452 1 1.01 0 .559-.448 1.01-1 1.01zm-11.418-7.264a.997.997 0 0 1-.821.434.997.997 0 0 1-.711-.3l-4.131-4.226a1.018 1.018 0 0 1 .008-1.428.994.994 0 0 1 1.414.008l3.286 3.361 5.953-8.658a.993.993 0 0 1 1.391-.253c.453.318.566.948.251 1.405l-6.64 9.657z"/>
</svg>
