<svg xmlns="http://www.w3.org/2000/svg" width="39" height="36">
    <path fill="#666" fill-rule="evenodd" d="M37.934 11.368l-5.679 14.477a1.003 1.003 0 0 1-.932.635H14.344l.881 3.488h13.89c.139 0 .27.029.39.079 1.427.182 2.539 1.431 2.539 2.956 0 1.655-1.296 3.002-2.89 3.002-1.596 0-2.894-1.347-2.894-3.002 0-.366.073-.713.19-1.038h-9.733c.117.325.19.672.19 1.038 0 1.655-1.299 3.002-2.894 3.002-1.594 0-2.891-1.347-2.891-3.002 0-1.358.884-2.494 2.083-2.859L6.108 2.039H.989a.999.999 0 1 1 0-1.997h5.899c.458 0 .858.311.971.754l2.325 9.209h26.819a1.001 1.001 0 0 1 .931 1.363zm-8.78 22.638c.49 0 .89-.45.89-1.003 0-.548-.4-.995-.89-.995-.492 0-.893.447-.893.995 0 .553.401 1.003.893 1.003zm-15.141 0c.493 0 .893-.45.893-1.003 0-.548-.4-.995-.893-.995-.491 0-.891.447-.891.995 0 .553.4 1.003.891 1.003zm-3.325-22.004l3.152 12.48h16.8l4.897-12.48H10.688z"/>
</svg>
