<svg xmlns="http://www.w3.org/2000/svg" width="36" height="34">
    <path fill="#666" fill-rule="evenodd" d="M35.681 19.382a.997.997 0 0 1-.714.305.979.979 0 0 1-.695-.286l-.985-.97v14.388c0 .556-.446 1.008-.996 1.008h-8.915c-.551 0-.997-.452-.997-1.008V19.476h-8.702v13.343c0 .556-.445 1.008-.996 1.008H3.764c-.55 0-.996-.452-.996-1.008V18.41l-.983.968a.983.983 0 0 1-1.408-.02 1.015 1.015 0 0 1 .019-1.425l2.624-2.585a.901.901 0 0 1 .108-.106L17.322 1.261a.986.986 0 0 1 1.39 0l14.145 13.933a.955.955 0 0 1 .219.216l2.586 2.546c.395.389.402 1.028.019 1.426zM18.017 3.391L4.761 16.447V31.81h6.924V18.468c0-.557.445-1.008.996-1.008h10.695c.551 0 .997.451.997 1.008V31.81h6.921V16.468L18.017 3.391z"/>
</svg>
