<svg xmlns="http://www.w3.org/2000/svg" width="37" height="38">
    <path fill="#666" fill-rule="evenodd" d="M36.701 36.812a.868.868 0 0 1-1.231 0l-3.973-3.944c-1.231 1.008-2.786 1.638-4.502 1.638-3.926 0-7.121-3.173-7.121-7.073 0-3.898 3.195-7.069 7.121-7.069 3.927 0 7.122 3.171 7.122 7.069 0 1.572-.537 3.012-1.414 4.187l3.998 3.97a.86.86 0 0 1 0 1.222zm-9.706-14.718c-2.965 0-5.379 2.394-5.379 5.339 0 2.947 2.414 5.343 5.379 5.343 2.967 0 5.38-2.396 5.38-5.343 0-2.945-2.413-5.339-5.38-5.339zm8.404-6.492h-13.59a1.002 1.002 0 0 1-1.007-.999V1.106c0-.552.451-.999 1.007-.999h13.59c.556 0 1.007.447 1.007.999v13.497c0 .553-.451.999-1.007.999zM34.392 2.107H22.816v11.496h11.576V2.107zM14.584 36.475H.995a1.003 1.003 0 0 1-1.006-1V21.979c0-.553.45-1 1.006-1h13.589c.557 0 1.007.447 1.007 1v13.496c0 .552-.45 1-1.007 1zm-1.006-13.496H2.002v11.496h11.576V22.979zm1.006-7.377H.995a1.001 1.001 0 0 1-1.006-.999V1.106c0-.552.45-.999 1.006-.999h13.589c.557 0 1.007.447 1.007.999v13.497c0 .553-.45.999-1.007.999zM13.578 2.107H2.002v11.496h11.576V2.107z"/>
</svg>
