<svg xmlns="http://www.w3.org/2000/svg" width="41" height="41">
    <path fill="#666" fill-rule="evenodd" d="M40.64 17.076l-3.581 4.029 2.68 3.569a1.005 1.005 0 0 1-.299 1.47l-3.961 2.285.516 5.265c.029.293-.073.586-.278.797a.958.958 0 0 1-.784.298l-5.203-.396-1.289 4.764a.997.997 0 0 1-.565.654.976.976 0 0 1-.862-.038l-4.64-2.497-3.213 3.259a.99.99 0 0 1-.704.294l-.07-.001a.996.996 0 0 1-.726-.401l-2.515-3.397-5.648-.239a1 1 0 0 1-.944-1.114l.471-4.075-5.197-1.471a1.002 1.002 0 0 1-.665-1.302l1.721-4.785-3.56-2.797a1.007 1.007 0 0 1-.046-1.538l3.527-3.134-1.718-4.286a1.009 1.009 0 0 1 .008-.767.996.996 0 0 1 .544-.536l4.186-1.68.821-4.604c.047-.26.195-.492.411-.644a1.03 1.03 0 0 1 .743-.162l5.199.946 2.044-3.489a.99.99 0 0 1 .712-.482c.302-.032.601.05.819.257L22.39 4.7l3.741-2.551a.989.989 0 0 1 1.342.216l3.19 4.147 4.28.502a.998.998 0 0 1 .871 1.109l-.58 5.018 5.083 2.362a1 1 0 0 1 .323 1.573zm-6.892-2.425a1 1 0 0 1-.569-1.022l.548-4.745-3.708-.434a.992.992 0 0 1-.671-.382l-2.876-3.739L22.848 6.8a.986.986 0 0 1-1.232-.096l-3.49-3.265-1.767 3.017a.998.998 0 0 1-1.032.476l-4.902-.891-.744 4.164a1 1 0 0 1-.609.751l-3.771 1.515 1.609 4.011c.157.394.051.843-.264 1.123l-3.158 2.807 3.186 2.502c.339.267.469.722.323 1.128l-1.603 4.455 4.984 1.413c.47.133.774.59.717 1.077l-.445 3.853 5.051.213c.299.014.576.16.755.401l2.108 2.848 2.92-2.963a.993.993 0 0 1 1.174-.175l4.194 2.258 1.177-4.35c.126-.463.562-.781 1.033-.734l4.841.369-.463-4.725a.998.998 0 0 1 .495-.964l3.54-2.043-2.492-3.322a1.004 1.004 0 0 1 .052-1.268l3.231-3.634-4.518-2.1zM20.574 24.19a.995.995 0 0 1-.815.43.99.99 0 0 1-.707-.297l-3.824-3.898a1.003 1.003 0 0 1 .009-1.412.989.989 0 0 1 1.405.007l2.983 3.043 5.461-7.918a.993.993 0 0 1 1.382-.252c.451.317.562.939.249 1.392l-6.143 8.905z"/>
</svg>
